<?xml version="1.0" encoding="UTF-8" standalone="no"?>
<svg
   height="800px"
   width="800px"
   version="1.1"
   id="Capa_1"
   viewBox="0 0 511.995 511.995"
   xml:space="preserve"
   sodipodi:docname="logo.svg"
   inkscape:version="1.2.2 (b0a8486541, 2022-12-01)"
   xmlns:inkscape="http://www.inkscape.org/namespaces/inkscape"
   xmlns:sodipodi="http://sodipodi.sourceforge.net/DTD/sodipodi-0.0"
   xmlns="http://www.w3.org/2000/svg"
   xmlns:svg="http://www.w3.org/2000/svg">
  <defs id="defs21" />
  <sodipodi:namedview
     id="namedview19"
     pagecolor="#ffffff"
     bordercolor="#000000"
     borderopacity="0.25"
     inkscape:showpageshadow="2"
     inkscape:pageopacity="0.0"
     inkscape:pagecheckerboard="0"
     inkscape:deskcolor="#d1d1d1"
     showgrid="false"
     inkscape:zoom="0.295"
     inkscape:cx="408.47458"
     inkscape:cy="405.08475"
     inkscape:window-width="1862"
     inkscape:window-height="1131"
     inkscape:window-x="58"
     inkscape:window-y="32"
     inkscape:window-maximized="1"
     inkscape:current-layer="Capa_1" />

  <!-- ── DMG body shell ─────────────────────────────────────── -->
  <!-- Warm putty gray matching the original DMG plastic -->
  <path
     id="path2"
     style="fill:#c8c4b4"
     d="M391.996,0H119.999c-13.234,0-24,10.766-24,24v463.995c0,13.234,10.766,24,24,24h215.996
        c11.011,0,25.185-5.871,32.97-13.657l33.374-33.373c7.786-7.785,13.657-21.959,13.657-32.97V24
        C415.996,10.766,405.229,0,391.996,0z
        M399.996,431.995c0,6.64-4.275,16.962-8.97,21.656l-33.374,33.374
        c-4.695,4.695-15.017,8.97-21.657,8.97H119.999c-4.411,0-8-3.589-8-8V24c0-4.411,3.589-8,8-8h271.997
        c4.411,0,8,3.589,8,8V431.995z" />

  <!-- ── LCD screen: GB classic green fill behind the bezel cutout ── -->
  <!-- Coordinates match the inner rect of path4: x=143.999 y=72 w=224 h=176 -->
  <rect
     id="screen-bg"
     x="143.999" y="72"
     width="223.997" height="175.997"
     rx="2" ry="2"
     style="fill:#9bbc0f" />

  <!-- ── Screen bezel frame (has a hole that exposes the green rect above) ── -->
  <path
     id="path4"
     style="fill:#1e1e1e"
     d="M375.996,56H135.999c-4.418,0-8,3.582-8,8v191.998c0,4.418,3.582,8,8,8h239.998
        c4.418,0,8-3.582,8-8V64C383.996,59.581,380.415,56,375.996,56z
        M367.996,247.997H143.999V72h223.998V247.997z" />

  <!-- ── D-pad ────────────────────────────────────────────────── -->
  <path
     id="path6"
     style="fill:#1e1e1e"
     d="M207.998,359.996h8c8.822,0,16-7.177,16-16v-16c0-8.823-7.177-16-16-16h-8v-8
        c0-8.823-7.178-16-16-16h-16c-8.822,0-16,7.177-16,16v8h-8c-8.822,0-16,7.177-16,16v16
        c0,8.823,7.178,16,16,16h8v8c0,8.823,7.177,16,16,16h16c8.822,0,16-7.177,16-16V359.996z
        M199.998,343.996c-4.418,0-8,3.582-8,8l0.001,16h-16.001v-16c0-4.418-3.582-8-8-8h-16v-16h16
        c4.418,0,8-3.582,8-8l0-16h16v16c0,4.418,3.582,8,8,8h16l0,16H199.998z" />

  <!-- ── A button — DMG dark red ────────────────────────────── -->
  <path
     id="path8"
     style="fill:#9d1c1c"
     d="M375.996,311.997c-4.418,0-8,3.582-8,8c0,4.411-3.589,8-8,8s-8-3.589-8-8s3.588-8,8-8
        c4.418,0,8-3.582,8-8s-3.582-8-8-8c-13.233,0-24,10.766-24,24s10.766,24,24,24
        c13.234,0,24-10.766,24-24C383.996,315.578,380.415,311.997,375.996,311.997z" />

  <!-- ── B button — DMG dark red ────────────────────────────── -->
  <path
     id="path10"
     style="fill:#9d1c1c"
     d="M335.997,351.996c-4.418,0-8,3.582-8,8c0,4.411-3.589,8-8,8s-8-3.589-8-8s3.588-8,8-8
        c4.418,0,8-3.582,8-8s-3.582-8-8-8c-13.233,0-24,10.766-24,24c0,13.234,10.766,24,24,24
        c13.234,0,24-10.766,24-24C343.997,355.578,340.415,351.996,335.997,351.996z" />

  <!-- ── SELECT strip ───────────────────────────────────────── -->
  <path
     id="path12"
     style="fill:#5a5a5a"
     d="M235.56,409.339l-24,16c-3.676,2.451-4.67,7.417-2.219,11.094
        c1.542,2.313,4.078,3.563,6.664,3.563c1.525,0,3.066-0.436,4.43-1.345l24-16
        c3.676-2.451,4.67-7.417,2.219-11.094C244.203,407.882,239.236,406.888,235.56,409.339z" />

  <!-- ── START strip ────────────────────────────────────────── -->
  <path
     id="path14"
     style="fill:#5a5a5a"
     d="M291.56,409.339l-24,16c-3.676,2.451-4.67,7.417-2.219,11.094
        c1.542,2.313,4.078,3.563,6.664,3.563c1.525,0,3.066-0.436,4.43-1.345l24-16
        c3.676-2.451,4.67-7.417,2.219-11.094C300.203,407.882,295.236,406.888,291.56,409.339z" />

  <!-- ── Ocelot logo mark — GBC atomic-purple palette ─────── -->
  <polygon
     points="2,6.118 6.941,6.118 13.529,16 6.941,25.882 2,25.882 8.588,16 "
     style="fill:#453a62"
     id="polygon242"
     transform="matrix(7.2648024,0,0,7.9638394,142.2182,30.904317)" />
  <polygon
     points="8.588,25.882 15.177,16 8.588,6.118 13.529,6.118 26.706,25.882 21.765,25.882 17.647,19.706 13.529,25.882 "
     style="fill:#5e5086"
     id="polygon244"
     transform="matrix(7.2648024,0,0,7.9638394,142.2182,30.904317)" />
  <polygon
     points="24.51,20.118 22.314,16.824 30,16.823 30,20.118 "
     style="fill:#8f4e8b"
     id="polygon246"
     transform="matrix(7.2648024,0,0,7.9638394,142.2182,30.904317)" />
  <polygon
     points="21.216,15.177 19.02,11.883 30,11.882 30,15.177 "
     style="fill:#8f4e8b"
     id="polygon248"
     transform="matrix(7.2648024,0,0,7.9638394,142.2182,30.904317)" />
</svg>
